<svg width="25" height="24" fill="none" xmlns="http://www.w3.org/2000/svg"><path fill-rule="evenodd" clip-rule="evenodd" d="M16.101 2a4.302 4.302 0 01-1.048 3.16 3.915 3.915 0 01-3.044 1.385 4.1 4.1 0 011.076-3.043A4.724 4.724 0 0116.1 2zm3.86 6.58c-1.388.831-2.241 2.297-2.262 3.884.002 1.795 1.105 3.415 2.801 4.114a10.15 10.15 0 01-1.457 2.893c-.858 1.251-1.758 2.474-3.186 2.497-.68.015-1.138-.175-1.616-.374-.498-.207-1.017-.422-1.83-.422-.862 0-1.404.222-1.928.437-.452.185-.89.365-1.507.39-1.36.049-2.4-1.336-3.289-2.575-1.777-2.532-3.162-7.135-1.306-10.267.872-1.526 2.501-2.495 4.292-2.551.772-.016 1.512.274 2.16.528.497.195.94.368 1.303.368.319 0 .75-.167 1.251-.36.79-.306 1.758-.68 2.743-.58a4.895 4.895 0 013.83 2.018z" fill="#000"/></svg>